<svg class="logo logo--canvas" fill="none" xmlns="http://www.w3.org/2000/svg" preserveAspectRatio="xMinYMin slice" viewBox="0 0 500 500"><path fill-rule="evenodd" clip-rule="evenodd" d="M0 0v500h500v-40H40V0H0Z" fill="currentColor"/><path d="M208.261 321.88c-12.8 0-24.72-2.32-35.76-6.96-10.88-4.64-20.4-11.12-28.56-19.44-8.16-8.32-14.56-18.08-19.2-29.28-4.48-11.2-6.72-23.44-6.72-36.72 0-13.28 2.24-25.52 6.72-36.72 4.48-11.36 10.8-21.12 18.96-29.28 8.16-8.32 17.68-14.72 28.56-19.2 11.04-4.64 23.04-6.96 36-6.96s24.56 2.16 34.8 6.48c10.4 4.32 19.2 10.08 26.4 17.28 7.2 7.2 12.32 15.2 15.36 24l-32.88 15.84c-3.04-8.64-8.4-15.76-16.08-21.36-7.52-5.76-16.72-8.64-27.6-8.64-10.56 0-19.84 2.48-27.84 7.44-8 4.96-14.24 11.84-18.72 20.64-4.32 8.64-6.48 18.8-6.48 30.48s2.16 21.92 6.48 30.72c4.48 8.8 10.72 15.68 18.72 20.64 8 4.96 17.28 7.44 27.84 7.44 10.88 0 20.08-2.8 27.6-8.4 7.68-5.76 13.04-12.96 16.08-21.6l32.88 15.84c-3.04 8.8-8.16 16.8-15.36 24-7.2 7.2-16 12.96-26.4 17.28-10.24 4.32-21.84 6.48-34.8 6.48ZM347.092 319l-51.6-131.04h38.88l35.76 99.12h-14.88l35.76-99.12h38.88L378.292 319h-31.2Z" fill="currentColor"/></svg>