<svg class="logo logo--childsplay-clothing" preserveAspectRatio="xMinYMin slice" viewBox="0 0 172 44" xmlns="http://www.w3.org/2000/svg"><path d="m82.358 35.956 3.072 4.383v3.338h1.156V40.34l3.077-4.383h-1.336l-2.283 3.487-2.275-3.487h-1.41ZM2.054 41.026a3.444 3.444 0 0 1-.213-1.221c0-.436.076-.82.222-1.194.146-.373.354-.703.626-.986.271-.282.597-.506.98-.671a3.241 3.241 0 0 1 1.294-.244c.426 0 .823.087 1.19.255.367.17.651.39.851.648l.906-.655a2.6 2.6 0 0 0-.555-.519 3.486 3.486 0 0 0-.718-.377 4.445 4.445 0 0 0-.822-.228 4.815 4.815 0 0 0-.847-.074 5.01 5.01 0 0 0-1.74.294 4.213 4.213 0 0 0-1.387.825 3.66 3.66 0 0 0-.914 1.276 4.028 4.028 0 0 0-.33 1.654c0 .605.11 1.143.326 1.641.217.5.518.927.898 1.289.384.36.839.64 1.369.84.53.2 1.106.298 1.732.298.726 0 1.348-.13 1.865-.388.518-.26.94-.593 1.265-1.01l-.914-.589c-.246.334-.56.59-.94.766a3.02 3.02 0 0 1-1.264.263c-.463 0-.897-.078-1.281-.24a2.852 2.852 0 0 1-.973-.66 2.87 2.87 0 0 1-.613-.985l-.013-.008ZM16.83 43.677h1.16v-7.72h-1.16v3.227H12.68v-3.228h-1.148v7.721h1.148v-3.534h4.149v3.534ZM23.45 35.956h-1.148v7.725h1.148v-7.725ZM27.766 43.677h4.808v-.958h-3.66v-6.763h-1.148v7.721ZM42.858 38.061a3.584 3.584 0 0 0-1.03-1.202 4.47 4.47 0 0 0-1.428-.687 5.868 5.868 0 0 0-1.574-.216H36.01v7.721h2.817c.526 0 1.048-.074 1.574-.231a4.525 4.525 0 0 0 1.427-.711 3.608 3.608 0 0 0 1.031-1.198c.263-.483.397-1.057.397-1.72 0-.664-.134-1.269-.397-1.756Zm-1.09 2.989a2.513 2.513 0 0 1-.713.915 3.274 3.274 0 0 1-1.09.57 4.66 4.66 0 0 1-1.373.196h-1.435v-5.836h1.435c.493 0 .952.063 1.374.188.421.13.784.314 1.089.558.309.243.542.546.714.911.17.365.254.785.254 1.265 0 .479-.083.868-.254 1.233ZM48.163 38.446a.99.99 0 0 1-.134-.53c0-.212.05-.405.146-.562.096-.157.221-.286.376-.392.154-.107.325-.181.517-.228.188-.047.376-.07.564-.07.346 0 .66.066.939.2.28.133.497.306.66.518l.813-.742c-.254-.267-.592-.483-1.01-.645a3.696 3.696 0 0 0-1.344-.24c-.338 0-.676.044-1.014.127a2.773 2.773 0 0 0-.906.396c-.267.18-.484.413-.65.688-.168.274-.251.608-.251.993 0 .357.062.656.183.895.126.24.284.444.489.605.2.165.43.299.684.405.255.106.514.196.776.267.263.078.514.157.748.236.233.074.442.168.621.278.18.11.318.244.422.397.104.157.154.35.154.585 0 .236-.05.432-.15.593-.1.165-.23.299-.388.409-.159.11-.334.188-.53.24a2.26 2.26 0 0 1-.58.074c-.38 0-.73-.083-1.056-.252a2.127 2.127 0 0 1-.776-.655l-.894.71c.317.37.718.652 1.198.84a4.107 4.107 0 0 0 2.563.142c.342-.094.647-.24.91-.432s.471-.436.63-.73c.159-.295.238-.64.238-1.04 0-.402-.075-.704-.221-.955a2.008 2.008 0 0 0-.568-.629 3.115 3.115 0 0 0-.776-.404 15.141 15.141 0 0 0-.847-.275l-.656-.212a2.424 2.424 0 0 1-.534-.252 1.169 1.169 0 0 1-.359-.36l.013.007ZM61.293 37.134a1.836 1.836 0 0 0-.592-.667 2.701 2.701 0 0 0-.927-.385 5.465 5.465 0 0 0-1.206-.126h-2.505v7.721h1.148v-3.39h1.298a5.42 5.42 0 0 0 1.19-.125c.367-.086.684-.212.952-.389.262-.172.471-.4.626-.675.15-.275.225-.609.225-.994s-.071-.703-.209-.97Zm-1.09 1.56c-.095.16-.225.29-.396.388a1.986 1.986 0 0 1-.609.216c-.234.047-.492.07-.768.07h-1.219v-2.497h1.24c.271 0 .522.02.755.063.23.04.43.106.597.204.163.098.297.228.393.385.096.153.146.35.146.581 0 .232-.046.428-.138.59ZM65.28 43.677h4.812v-.958h-3.665v-6.763H65.28v7.721ZM77.188 35.956h-1.044l-3.56 7.721h1.277l.822-1.897h3.895l.834 1.897h1.298l-3.522-7.72Zm-2.1 4.874 1.54-3.621 1.532 3.62h-3.072ZM98.653 41.1a3.478 3.478 0 0 1-.238-1.283c0-.452.08-.876.234-1.285a3.16 3.16 0 0 1 1.745-1.807c.421-.18.897-.27 1.431-.27a3.105 3.105 0 0 1 1.365.314c.192.094.363.204.505.326.142.122.259.248.342.37l.697-.48a2.38 2.38 0 0 0-.521-.51 3.441 3.441 0 0 0-.697-.385 4.36 4.36 0 0 0-.819-.248 4.454 4.454 0 0 0-.889-.09 4.62 4.62 0 0 0-1.698.306 4.234 4.234 0 0 0-1.357.845 3.8 3.8 0 0 0-.897 1.28 4.004 4.004 0 0 0-.326 1.626c0 .589.105 1.13.317 1.626.213.495.51.923.885 1.28.38.361.831.64 1.357.844a4.7 4.7 0 0 0 1.715.307c.372 0 .714-.04 1.027-.118.313-.079.601-.18.86-.314s.488-.287.684-.46c.197-.176.368-.361.505-.557l-.651-.393a2.49 2.49 0 0 1-1.068.872c-.426.18-.873.27-1.344.27a3.56 3.56 0 0 1-1.419-.27 3.157 3.157 0 0 1-1.749-1.807l.004.012ZM108.642 43.677h4.658v-.699h-3.824v-7.022h-.834v7.721ZM124.314 38.19a3.93 3.93 0 0 0-.897-1.28 4.1 4.1 0 0 0-1.357-.844 4.626 4.626 0 0 0-1.699-.306 4.62 4.62 0 0 0-1.698.306 4.06 4.06 0 0 0-1.357.844 3.8 3.8 0 0 0-.897 1.28 4.004 4.004 0 0 0-.326 1.627c0 .589.109 1.13.326 1.626.213.494.513.922.897 1.28.38.361.835.644 1.357.848a4.605 4.605 0 0 0 1.698.306 4.61 4.61 0 0 0 1.699-.306 4.174 4.174 0 0 0 1.357-.848 3.89 3.89 0 0 0 .897-1.28 4.004 4.004 0 0 0 .325-1.626c0-.59-.108-1.131-.325-1.626Zm-.789 2.919c-.154.404-.38.762-.672 1.068a3.252 3.252 0 0 1-1.073.727 3.495 3.495 0 0 1-1.419.274c-.526 0-1.001-.09-1.423-.274a3.298 3.298 0 0 1-1.069-.727 3.135 3.135 0 0 1-.676-1.068 3.609 3.609 0 0 1-.229-1.285c0-.447.075-.88.229-1.288.155-.404.38-.761.676-1.072a3.259 3.259 0 0 1 1.069-.734c.422-.18.897-.271 1.423-.271s.998.09 1.419.27c.422.181.781.429 1.073.735.292.31.518.668.672 1.072.154.409.234.837.234 1.288 0 .452-.08.876-.234 1.285ZM130.98 36.651h2.746v-.695h-6.328v.695h2.747v7.026h.835v-7.026ZM142.587 43.677h.83v-7.72h-.83v3.345h-4.479v-3.346h-.834v7.721h.834v-3.652h4.479v3.652ZM148.752 35.956h-.835v7.725h.835v-7.725ZM158.886 43.677h1.043v-7.72h-.835v6.577h-.025l-4.775-6.578h-1.043v7.721h.835v-6.64h.025l4.775 6.64ZM170.489 40.327v2.345c-.238.145-.551.267-.939.361a5.377 5.377 0 0 1-1.277.142c-.526 0-.997-.09-1.419-.271a3.157 3.157 0 0 1-1.749-1.799 3.514 3.514 0 0 1-.238-1.284c0-.448.08-.88.238-1.285a3.168 3.168 0 0 1 1.749-1.807c.422-.18.893-.27 1.419-.27s.964.078 1.357.235c.392.158.734.377 1.018.66l.58-.546a3.669 3.669 0 0 0-1.252-.77c-.488-.184-1.06-.278-1.715-.278-.61 0-1.177.102-1.699.306a4.232 4.232 0 0 0-1.357.844 3.8 3.8 0 0 0-.897 1.28 4.004 4.004 0 0 0-.326 1.627c0 .589.105 1.13.318 1.626.212.494.509.922.889 1.28.379.361.83.64 1.356.844a4.7 4.7 0 0 0 1.716.307c.555 0 1.093-.063 1.611-.185a5.546 5.546 0 0 0 1.448-.57v-3.487h-2.746v.7h1.911l.004-.005Z" fill="currentColor" /><path d="M70.42 26.068h25.554V.5H70.42v25.568Zm1.021-1.023h23.51V1.522h-23.51v23.523Zm1.287-1.336h20.838V2.86H72.728v20.85ZM85.62 10.073h2.064c.365 0 .692.033.985.098.29.066.54.174.75.322.208.149.37.34.482.573.114.233.17.513.17.841 0 .352-.065.648-.197.885a1.594 1.594 0 0 1-.53.577 2.32 2.32 0 0 1-.784.318 4.303 4.303 0 0 1-.948.098h-.865v2.621H85.62v-6.333Zm-9.208 3.15c0-.508.087-.966.263-1.374.175-.408.417-.757.723-1.043.308-.285.67-.506 1.087-.66a3.857 3.857 0 0 1 1.994-.176 3.137 3.137 0 0 1 1.206.479c.18.12.331.263.456.43l-.857.68a1.45 1.45 0 0 0-.653-.498 2.166 2.166 0 0 0-.787-.156c-.328 0-.626.06-.894.18-.268.118-.498.282-.692.491a2.158 2.158 0 0 0-.447.733c-.105.28-.157.586-.157.914 0 .345.051.66.151.947.102.287.246.532.434.738.188.205.414.366.675.479.263.113.558.17.886.17.338 0 .64-.067.903-.201.261-.134.473-.312.634-.532l.903.634c-.28.352-.623.625-1.028.819-.406.193-.879.29-1.421.29-.495 0-.95-.082-1.364-.246a3.15 3.15 0 0 1-1.069-.688 3.153 3.153 0 0 1-.697-1.056 3.546 3.546 0 0 1-.249-1.354Zm11.662-2.17a3.996 3.996 0 0 0-.506-.032h-.821v1.816h.786c.184 0 .36-.013.527-.04.166-.026.316-.074.446-.143a.804.804 0 0 0 .314-.282.845.845 0 0 0 .117-.465.816.816 0 0 0-.117-.453.82.82 0 0 0-.308-.272 1.329 1.329 0 0 0-.438-.13Z" fill="currentColor" fill-rule="evenodd" clip-rule="evenodd"/></svg>