<svg  class="logo logo--grau" preserveAspectRatio="xMinYMin slice" xmlns="http://www.w3.org/2000/svg" fill="none" viewBox="0 0 70 19"><path fill="currentColor" d="M0 8.969c0 5.144 3.793 9.023 8.824 9.023 4.928 0 8.505-3.535 8.505-8.406.005-.552-.03-1.104-.106-1.651l-.017-.093H8.644v2.954h5.543c-.522 2.498-2.679 4.174-5.228 4.174-2.992 0-5.735-2.117-5.735-5.998 0-3.385 2.448-5.903 5.649-5.903 2.21 0 3.42.89 4.563 2.23l2.923-1.081C14.937 1.678 12.081 0 8.829 0 4.168 0 0 3.513 0 8.969Zm34.107-3.443c0-1.458-.535-2.79-1.506-3.75C31.573.761 30.138.225 28.457.248h-7.475v17.503h3.21v-6.948h1.968l4.683 6.897.034.046h3.76l-4.83-6.975c2.54-.43 4.302-2.572 4.302-5.246l-.002.001Zm-3.156.006c0 1.523-.895 2.327-2.591 2.327h-4.167V3.184h4.17c1.695 0 2.59.812 2.59 2.347M66.674.256v10.725c0 1.927-1.638 3.848-3.985 3.848-2.346 0-3.983-1.925-3.983-3.848V.256H55.44v10.725c0 4.03 3.138 7.023 7.245 7.023 4.108 0 7.25-2.997 7.25-7.023V.256h-3.261ZM53.34 17.596 46.572.248H43.27l-6.76 17.348-.058.152h3.43l1.62-4.097h6.849l1.62 4.097h3.428l-.059-.152Zm-8.414-6.9h-2.538l2.535-6.606 2.536 6.605-2.533.001Z"/></svg>