<svg  class="logo logo--lightbox" preserveAspectRatio="xMinYMin slice" xmlns="http://www.w3.org/2000/svg" fill="none" viewBox="0 0 167 17"><path fill="currentColor" d="M165.878.29h-3.046l-3.926 5.76-3.867-5.76h-3.106l5.391 7.74-5.625 8.028h2.988l4.16-6.05 4.102 6.05h3.105l-5.625-8.029 5.449-7.738Zm-30.41 2.154c3.223 0 5.625 2.327 5.625 5.701 0 3.375-2.402 5.702-5.625 5.702-3.222 0-5.625-2.327-5.625-5.702 0-3.374 2.403-5.701 5.625-5.701Zm0-2.444c-4.863 0-8.32 3.49-8.32 8.145 0 4.655 3.457 8.146 8.32 8.146 4.864 0 8.321-3.491 8.321-8.146 0-4.654-3.457-8.145-8.321-8.145Zm-23.964 2.676c1.757 0 3.339.291 3.339 2.095 0 1.862-1.582 2.153-3.339 2.153h-3.516V2.676h3.516Zm.351 6.633c1.992 0 3.34.407 3.34 2.153 0 1.803-1.348 2.21-3.34 2.21h-3.867V9.31h3.867ZM105.41.291v15.767h6.504c3.633 0 5.918-1.338 5.918-4.48 0-1.803-1.289-3.2-2.813-3.607 1.406-.407 2.461-1.746 2.461-3.375 0-3.141-2.578-4.305-5.918-4.305h-6.152Zm-9.492 0H83.086v2.385h5.156V16h2.578V2.676h5.156V.291h-.058ZM62.46.29h-2.578v15.767h2.578v-6.69h8.554v6.748h2.579V.35h-2.579v6.633h-8.554V.29ZM42.129 0c-4.805 0-8.32 3.433-8.32 8.145 0 5.237 4.101 8.146 8.203 8.146 4.922 0 7.793-3.724 7.793-8.262v-.582h-6.973v2.386h4.219c-.41 2.618-2.11 4.072-4.98 4.072-3.106 0-5.509-2.327-5.509-5.701 0-3.375 2.403-5.702 5.625-5.702 1.758 0 3.282.756 4.278 1.92l1.875-1.804C46.816.99 44.648 0 42.129 0ZM23.437.29H20.86v15.768h2.578V.291Zm-12.07 13.383H2.578V.349H0v15.767h11.367v-2.443Z"/></svg>