<svg class="logo logo--stephen-webster" fill="none" xmlns="http://www.w3.org/2000/svg" preserveAspectRatio="xMinYMin slice" viewBox="0 0 561 385"><path d="M497.786 5.65c-23.433 0-46.767-1.14-70.843-2.329v6.99c16.893 1.784 49.095 9.417 49.095 33.31 0 8.823-5.45 31.624-10.899 46.792l-57.567 151.185c-1.139-3.272-2.427-6.494-3.963-9.468-6.193-12.095-14.813-22.306-24.771-31.823-31.26-29.89-105.621-58.739-105.621-58.739-13.177-5.452-24.869-11.5-35.273-18.092-10.304-6.593-18.577-14.177-24.77-22.802-6.143-8.526-9.264-18.737-9.264-30.485 0-19.778 6.886-33.508 20.559-41.142 13.723-7.683 31.261-11.55 52.662-11.55 14.664 0 28.189 2.777 40.574 8.23 12.385 5.55 23.681 12.788 33.836 21.71 10.107 8.923 18.975 19.183 26.703 30.733 7.728 11.5 14.02 23.099 18.875 34.847h7.927c-1.883-15.813-3.122-31.377-3.666-46.942a1369.971 1369.971 0 0 1-.843-48.032c-12.038 0-23.284-.991-33.786-2.974-10.553-2.032-21.253-4.065-32.103-6.345-10.552-2.18-21.402-4.164-32.449-6.047C291.052.99 278.568 0 264.696 0c-14.267 0-27.693 2.181-40.276 6.593-12.584 4.46-23.681 10.706-33.242 18.935-9.561 8.278-17.191 18.142-22.789 29.84-5.647 11.748-8.471 24.735-8.471 38.912 0 19.034 5.499 34.747 16.348 47.189 10.899 12.442 24.424 23.198 40.574 32.319 9.908 5.601 20.411 10.855 31.359 15.763l-46.172 118.271-75.698-207.941c-7.629-21.662-14.664-38.069-14.664-48.577 0-32.765 27.247-38.02 51.621-40.994V3.321c-28.287 1.19-56.625 2.33-85.408 2.33C52.216 5.65 26.108 4.51 0 3.32v6.99c24.523 4.163 46.271 5.353 67.524 66.124L178.15 384.95h9.71l76.094-188.559c16.597 7.782 34.927 18.836 48.055 25.776 16.15 8.674 29.675 18.638 40.574 30.187 10.948 11.55 16.348 25.875 16.348 43.026 0 0 1.734 22.405-10.552 89.62h9.165L491.891 80.55C503.78 51.352 517.9 15.663 561 10.36V3.32c-20.708 1.19-42.011 2.33-63.214 2.33Z" fill="currentColor"/></svg>